<?xml version="1.0" encoding="UTF-8"?>
<svg version="1.1" xmlns="http://www.w3.org/2000/svg" width="1254" height="1254">
<path d="M0 0 C413.82 0 827.64 0 1254 0 C1254 413.82 1254 827.64 1254 1254 C840.18 1254 426.36 1254 0 1254 C0 840.18 0 426.36 0 0 Z " fill="#FDFDFD" transform="translate(0,0)"/>
<path d="M0 0 C33.70058757 9.10826691 65.23027005 43.22297717 89.0625 66.9375 C89.84802246 67.71826904 90.63354492 68.49903809 91.44287109 69.3034668 C96.16741227 74.04166856 100.64618492 78.92109149 105 84 C106.04542 85.19138248 107.09226643 86.381515 108.140625 87.5703125 C114.90608859 95.28861289 121.39434656 103.16027772 127.66601562 111.28369141 C128.98834372 112.98500299 130.32677053 114.67212451 131.671875 116.35546875 C156.08284265 146.94339936 177.41730663 180.28566159 196.53710938 214.39160156 C197.5193084 216.1429057 198.5050381 217.89223398 199.49414062 219.63964844 C204.67988752 228.80475943 209.56176607 237.85502644 213.53125 247.6171875 C215.49714378 252.14501733 217.81060482 256.44751197 220.19799805 260.76489258 C222.02579725 264.08603087 223.67008862 267.42193318 225.12670898 270.92163086 C226.23672703 273.56339313 227.39800122 276.18084838 228.55859375 278.80078125 C229.02716797 279.86103516 229.49574219 280.92128906 229.97851562 282.01367188 C230.94619796 284.20164439 231.91493716 286.3891498 232.88476562 288.57617188 C235.37777292 294.22220074 237.8002393 299.88155633 240.06323242 305.6237793 C240.99231482 307.98050564 241.94538811 310.32634776 242.90234375 312.671875 C251.9327327 335.07731548 259.83462578 358.06102024 266.8125 381.1875 C267.16671021 382.36058716 267.16671021 382.36058716 267.52807617 383.55737305 C268.38070862 386.47658396 269 388.94153256 269 392 C264.80822188 390.44690262 260.96789359 388.40088473 257.0625 386.25 C241.97094889 378.1411617 225.5758444 371.37065928 208.3984375 369.39453125 C205 369 205 369 204 368 C190.29873312 367.09144618 176.30215444 367.19862461 162.90625 370.34375 C160 371 160 371 156 371 C157.0614169 374.50032934 158.12435202 378.00019609 159.1875 381.5 C159.47947266 382.46292969 159.77144531 383.42585938 160.07226562 384.41796875 C165.51967919 402.34171662 171.25495251 420.16990115 177 438 C189.66009105 477.29135053 189.66009105 477.29135053 193.2265625 489.49609375 C194.92587661 494.99740863 196.79101666 500.44211895 198.71875 505.8671875 C199.01136719 506.69089844 199.30398438 507.51460937 199.60546875 508.36328125 C200.19935439 510.03082913 200.79568927 511.69750685 201.39453125 513.36328125 C202.8873747 517.57875548 204.2408574 521.77890972 205.375 526.10546875 C207.5760917 534.3989721 210.46596814 542.48395732 213.23876953 550.59985352 C215.92062274 558.46430329 218.41821708 566.25823319 220.33959961 574.35083008 C221.32866297 578.31841844 222.63358777 582.14896768 224 586 C224.27312012 586.77923828 224.54624023 587.55847656 224.82763672 588.36132812 C225.97970535 591.63943329 227.13964879 594.91467796 228.30664062 598.1875 C230.31409513 603.8745426 232.13505183 609.60265373 233.89086914 615.37207031 C235.12561044 619.41086752 236.38766977 623.44048317 237.65625 627.46875 C237.88768204 628.2041803 238.11911407 628.9396106 238.3575592 629.69732666 C239.07137077 631.96499021 239.78561425 634.23251728 240.5 636.5 C243.69993353 646.6566891 246.87986856 656.81843975 250 667 C250.40441464 668.31240128 250.80904831 669.62473507 251.21386719 670.93701172 C252.30231473 674.46667387 253.38482186 677.99811962 254.46435547 681.53051758 C254.90659657 682.97442005 255.35062208 684.41777713 255.79638672 685.8605957 C263.30754311 710.18544003 266.00583107 734.88740374 256 759 C255.73799805 759.65484375 255.47599609 760.3096875 255.20605469 760.984375 C246.61846574 781.89704444 229.20344803 795.74635897 209.0625 804.8125 C189.34795785 812.5009117 166.27119204 812.71009479 146.7734375 804.234375 C124.27758874 793.79447229 108.18944451 777.00020453 99 754 C95.60496781 744.44057401 92.46248459 734.24043282 94 724 C96.49793822 718.88677076 99.90667338 715.52791027 105 713 C111.24281071 711.87524779 116.65535728 712.25383163 122.0625 715.6875 C127.03968823 719.56862873 128.83194488 722.59939969 129.75 728.8125 C131.97856329 742.42331215 138.82184736 755.74740236 150.0625 763.875 C163.52968091 772.69692033 177.81705279 774.20667265 193.6015625 771.34765625 C202.97003349 768.20233386 211.23056215 761.98716974 217 754 C217.65742187 753.1028125 218.31484375 752.205625 218.9921875 751.28125 C227.3753131 737.58120038 227.68894188 720.97671621 224.05078125 705.734375 C222.40266177 699.87711766 220.47777948 694.1253438 218.4921875 688.375 C216.77392502 683.39313323 215.25689158 678.36189938 213.76171875 673.30859375 C213.21264401 671.06266454 213.21264401 671.06266454 212 670 C211.67533241 668.48586842 211.39052676 666.96311431 211.125 665.4375 C210.36278456 661.46268761 209.3378575 657.85594317 207.82389832 654.11000061 C205.28714924 647.6133954 203.32143943 640.89142987 201.29296875 634.22265625 C200.78326499 632.5566217 200.27349723 630.89060672 199.76367188 629.22460938 C198.97983084 626.65871485 198.19667478 624.09261589 197.41479492 621.52612305 C194.47096739 611.86958297 191.45256965 602.24927656 188.23146057 592.681427 C185.41549143 584.3026171 182.77146858 575.87105381 180.125 567.4375 C179.07504171 564.09869907 178.02399275 560.76024218 176.97265625 557.421875 C176.71655075 556.60829025 176.46044525 555.79470551 176.19657898 554.95646667 C174.01251042 548.02460253 171.79182412 541.10494557 169.5625 534.1875 C167.14174887 526.67290683 164.8367525 519.13711611 162.65283203 511.55053711 C161.28119619 506.82959886 159.68314955 502.23740857 157.95703125 497.63671875 C156.09011979 492.49318716 154.56789235 487.24077512 153 482 C152.52998284 480.42967705 152.05992838 478.85936526 151.58984375 477.2890625 C151.34073242 476.45681152 151.09162109 475.62456055 150.83496094 474.76708984 C145.859377 457.65372627 145.859377 457.65372627 140.0625 440.8125 C137.76826488 434.66987049 136.06321125 428.36799048 134.28808594 422.06103516 C130.21319226 407.50029495 130.21319226 407.50029495 125.1875 393.25 C124 390 124 390 124 386 C116.76625684 390.06320892 110.31662555 394.62701668 104 400 C102.6696875 401.10988281 102.6696875 401.10988281 101.3125 402.2421875 C86.89477974 414.73481443 76.81859525 430.57262135 68.70043945 447.70849609 C67.12242736 450.99585028 65.66543288 453.52324962 63 456 C61.79092461 451.57510919 60.5824622 447.15005154 59.37451172 442.72485352 C58.96549102 441.22676322 58.55631712 439.72871475 58.14697266 438.23071289 C56.02450644 430.46311232 53.91249357 422.69329687 51.84765625 414.91015625 C50.85081887 411.15923928 49.84956768 407.41308015 48.76171875 403.6875 C45.89690165 393.85336421 43.52304249 383.92186217 41.25 373.9375 C41.09534271 373.26501221 40.94068542 372.59252441 40.78134155 371.8996582 C39.10983252 364.60863352 37.62093754 357.45942066 37 350 C36.34 350 35.68 350 35 350 C34.87995605 349.29842773 34.75991211 348.59685547 34.63623047 347.87402344 C32.32391011 334.44385799 29.88724622 321.06915843 27 307.75 C26.74581299 306.57244141 26.49162598 305.39488281 26.22973633 304.18164062 C25.10081907 298.97845989 23.95315862 293.78116881 22.75390625 288.59375 C19.03530599 272.12024466 16.76164338 255.44069376 14.41040039 238.72753906 C14.2656427 237.70282501 14.12088501 236.67811096 13.97174072 235.62234497 C13.70031444 233.69475395 13.43159511 231.76677887 13.16619873 229.83834839 C12.42755102 224.57684765 11.52556438 219.38330316 10.43104553 214.18371582 C9.78914897 210.93180953 9.45401346 207.67184912 9.125 204.375 C8.2821809 196.27536558 7.29017893 188.19716472 6.26794434 180.11865234 C4.14101355 163.30087977 2.16557979 146.4966721 0.69677734 129.60693359 C0.62023926 128.73375488 0.54370117 127.86057617 0.46484375 126.9609375 C0.399021 126.19571777 0.33319824 125.43049805 0.26538086 124.64208984 C0.06032945 122.60063048 -0.20456285 120.56512907 -0.49414062 118.53393555 C-1.24801311 112.54493184 -1.37168028 106.52446956 -1.55859375 100.49609375 C-1.59017987 99.50366071 -1.59017987 99.50366071 -1.6224041 98.49117851 C-2.17015863 80.87729091 -2.11547905 63.26107263 -2.06866455 45.64068604 C-2.05819281 41.26111357 -2.05381743 36.88153466 -2.04882812 32.50195312 C-2.03829607 24.00128536 -2.02137071 15.50064743 -2 7 C-1.34 7 -0.68 7 0 7 C0 4.69 0 2.38 0 0 Z " fill="#049441" transform="translate(517,236)"/>
<path d="M0 0 C-0.77077881 0.76030518 -1.54155762 1.52061035 -2.33569336 2.30395508 C-5.24286025 5.17443288 -8.14300155 8.0519264 -11.04125977 10.93139648 C-12.28745343 12.16764242 -13.53544902 13.40207505 -14.78540039 14.63452148 C-22.35234027 22.09826202 -29.45097033 29.61358737 -36 38 C-37.10133813 39.35540842 -38.20409279 40.70966768 -39.30859375 42.0625 C-56.03570991 62.9588373 -70.0427868 85.6223651 -83 109 C-83.43070801 109.76892578 -83.86141602 110.53785156 -84.30517578 111.33007812 C-106.33751292 150.80583401 -122.45929053 194.40176421 -134 238 C-134.27473145 239.03415039 -134.54946289 240.06830078 -134.83251953 241.13378906 C-136.5848767 247.74829122 -138.30202221 254.37135594 -140 261 C-140.3196875 262.2375 -140.639375 263.475 -140.96875 264.75 C-147.59399459 290.72095878 -152.12556732 318.03133058 -154.67626953 344.69433594 C-154.90271248 347.00658143 -155.14738681 349.31708115 -155.40576172 351.62597656 C-157.98011905 374.83283778 -158.27272054 397.98996157 -158.25 421.3125 C-158.2496664 422.05587112 -158.24933281 422.79924225 -158.24898911 423.56513977 C-158.23981139 438.83466838 -158.12710492 454.095099 -157.546875 469.35546875 C-157.48950165 470.89960197 -157.48950165 470.89960197 -157.43096924 472.47492981 C-157.39026306 473.41543686 -157.34955688 474.35594391 -157.30761719 475.32495117 C-157.27255066 476.1369548 -157.23748413 476.94895844 -157.20135498 477.78556824 C-157.00426767 479.95306563 -156.53638988 481.89581117 -156 484 C-155.93209325 486.24907152 -155.91500016 488.50001605 -155.9375 490.75 C-155.94652344 491.92046875 -155.95554687 493.0909375 -155.96484375 494.296875 C-155.98224609 495.63492188 -155.98224609 495.63492188 -156 497 C-156.66 497 -157.32 497 -158 497 C-158 496.34 -158 495.68 -158 495 C-158.57234375 494.75121094 -159.1446875 494.50242187 -159.734375 494.24609375 C-162.33550243 492.81547366 -164.11560591 491.12599638 -166.25 489.0625 C-192.31937529 465.24839325 -226.8043085 451.26422801 -262.21484375 452.61328125 C-293.32633469 454.44035844 -320.08495396 468.00941504 -341 491 C-341.33 491.66 -341.66 492.32 -342 493 C-340.948125 493.3403125 -340.948125 493.3403125 -339.875 493.6875 C-334.44264042 496.16749024 -330.65197634 499.67311956 -328 505 C-326.92384524 511.44024398 -327.06627546 517.42553905 -330.5625 523.0625 C-334.47578315 527.99033804 -337.86312412 530.62749599 -344.125 531.37109375 C-349.19269093 531.56113216 -352.94041323 531.50190952 -357.5625 529.3125 C-361.97034348 525.13069977 -365.64900059 521.15899471 -366.3359375 514.9765625 C-366.46733729 503.70246031 -366.46733729 503.70246031 -362 499 C-356.30641327 493.58043616 -352.85312035 491.89990229 -345 492 C-345.02320313 491.15566406 -345.04640625 490.31132813 -345.0703125 489.44140625 C-345.20688 479.75486866 -344.84826485 470.10606245 -344.30828857 460.43624878 C-344.22876806 458.99694362 -344.15302533 457.55742395 -344.08135986 456.1177063 C-343.66132808 447.81731368 -342.7519415 439.94068523 -340.70678711 431.85107422 C-339.77000713 428.07224293 -339.2183214 424.28966952 -338.6875 420.4375 C-333.1968249 383.68079764 -322.90788707 347.43191124 -309 313 C-308.60474121 312.02015137 -308.20948242 311.04030273 -307.80224609 310.03076172 C-284.96399152 253.86052179 -254.22650124 201.35859237 -215 155 C-214.55769043 154.47422363 -214.11538086 153.94844727 -213.65966797 153.40673828 C-212.17346472 151.64228001 -210.68155605 149.88281254 -209.1875 148.125 C-208.75018555 147.6081665 -208.31287109 147.09133301 -207.86230469 146.55883789 C-198.19093241 135.26588747 -187.81401982 124.65068845 -177.28955078 114.15917969 C-175.23482492 112.10986489 -173.18556897 110.05518737 -171.13671875 108 C-169.80500835 106.66894975 -168.47298812 105.33820939 -167.140625 104.0078125 C-166.54147278 103.40663605 -165.94232056 102.80545959 -165.32501221 102.18606567 C-161.04483313 97.92909605 -156.58103852 93.9299359 -152 90 C-151.47274826 89.54515732 -150.94549652 89.09031464 -150.40226746 88.62168884 C-109.1555327 53.15710858 -62.96801236 21.81667733 -12 2.125 C-11.12819092 1.7851709 -10.25638184 1.4453418 -9.3581543 1.09521484 C-8.55933838 0.79824707 -7.76052246 0.5012793 -6.9375 0.1953125 C-6.24527344 -0.06233887 -5.55304688 -0.31999023 -4.83984375 -0.58544922 C-3 -1 -3 -1 0 0 Z " fill="#E30E19" transform="translate(493,245)"/>
<path d="M0 0 C0.00546844 1.77451035 0.00546844 1.77451035 0.01104736 3.58486938 C-0.20954084 79.60469054 -0.20954084 79.60469054 4.72857666 155.40673828 C5.00088748 158.00847922 5.25917362 160.6112568 5.51318359 163.21484375 C7.07157857 179.12502219 8.90962607 194.98296588 11.60546875 210.74707031 C12.51927897 216.21265369 13.16811948 221.65144938 13.64204407 227.16976929 C14.70738118 239.5340955 16.6792486 251.61587541 18.9375 263.8125 C19.28919969 265.74920598 19.64011278 267.68605498 19.99023438 269.62304688 C20.98022393 275.08451297 21.98776597 280.54261955 23 286 C23.13866486 286.75115082 23.27732971 287.50230164 23.42019653 288.2762146 C25.20328737 297.93348535 27.08600247 307.56787134 29.0625 317.1875 C29.31837891 318.45658203 29.57425781 319.72566406 29.83789062 321.03320312 C30.08861328 322.25330078 30.33933594 323.47339844 30.59765625 324.73046875 C30.93035522 326.36085083 30.93035522 326.36085083 31.26977539 328.02416992 C31.95881163 330.83214811 32.89962069 333.33296494 34 336 C34.36814153 337.34905336 34.70300406 338.70773912 35 340.07421875 C35.165 340.82509766 35.33 341.57597656 35.5 342.34960938 C35.665 343.12111328 35.83 343.89261719 36 344.6875 C36.165 345.43966797 36.33 346.19183594 36.5 346.96679688 C37.33242792 350.78751094 38.11650889 354.61240349 38.84692383 358.45385742 C40.12726979 364.86085418 41.78709294 371.15973099 43.44921875 377.4765625 C43.78847165 378.77236902 44.12756407 380.06821758 44.46650696 381.36410522 C45.17652238 384.07592543 45.88865526 386.78717825 46.60229492 389.49804688 C47.4960875 392.89401745 48.38434106 396.29140678 49.27100945 399.68924332 C52.94593019 413.7605744 56.69375299 427.79726166 60.93400574 441.71182251 C61.34336113 443.07335953 61.34336113 443.07335953 61.76098633 444.46240234 C62.00134109 445.24722992 62.24169586 446.0320575 62.48933411 446.84066772 C63 449 63 449 63 453 C58.9449433 451.2448262 55.61792025 448.52753862 52.125 445.875 C45.04127029 440.59402365 37.79560044 436.15948999 30 432 C29.03964844 431.46761719 28.07929687 430.93523437 27.08984375 430.38671875 C19.0740306 426.11970405 10.67131206 423.37121567 2.02954102 420.68261719 C0.52534228 420.17669398 -0.95556359 419.60036211 -2.41967773 418.98803711 C-11.53492093 415.49769846 -21.60268783 415.65456852 -31.23535156 415.68432617 C-33.365756 415.68748629 -35.49476576 415.66392672 -37.625 415.63867188 C-46.84035064 415.59707795 -55.0303545 416.75362613 -64 419 C-65.91590816 419.39948852 -67.83246239 419.79590754 -69.75 420.1875 C-88.90156316 425.12819582 -106.22607448 436.13941893 -121 449 C-121.70382812 449.57105469 -122.40765625 450.14210938 -123.1328125 450.73046875 C-128.90786344 455.49771668 -133.45659444 461.0702153 -138 467 C-138.41040527 467.53544434 -138.82081055 468.07088867 -139.24365234 468.62255859 C-144.72038606 475.83700065 -149.43496918 483.1809244 -153.48852539 491.29003906 C-155.81194431 495.90597216 -155.81194431 495.90597216 -158 497 C-163.52025913 429.00519253 -160.62496118 362.09005184 -148.9375 294.8125 C-148.77795837 293.88584534 -148.61841675 292.95919067 -148.45404053 292.00445557 C-146.52694402 280.93636648 -144.13550437 270.09227583 -141.15063477 259.26074219 C-139.98259394 255.0119895 -138.97642924 250.73370898 -138 246.4375 C-135.94149141 237.5451453 -133.55034077 228.76327659 -131 220 C-130.46632813 218.16501953 -130.46632813 218.16501953 -129.921875 216.29296875 C-114.53286645 165.41170456 -92.30463781 116.37135692 -63 72 C-62.5167627 71.26555664 -62.03352539 70.53111328 -61.53564453 69.77441406 C-52.18206806 55.63613624 -42.00739228 41.91125405 -30.37890625 29.5546875 C-28.44300162 27.47573573 -26.58060671 25.36557711 -24.7265625 23.21484375 C-20.93005095 18.85817441 -16.90895858 14.76087994 -12.8125 10.6875 C-12.11447266 9.98560547 -11.41644531 9.28371094 -10.69726562 8.56054688 C-9.68116211 7.54637695 -9.68116211 7.54637695 -8.64453125 6.51171875 C-8.03971924 5.90803467 -7.43490723 5.30435059 -6.81176758 4.68237305 C-1.76926426 0 -1.76926426 0 0 0 Z " fill="#FDB702" transform="translate(506,243)"/>
<path d="M0 0 C42.281922 -0.6058027 42.281922 -0.6058027 59.89257812 2.62841797 C63.03831319 3.18307607 66.20536627 3.54657851 69.375 3.9375 C76.30969232 4.93990813 83.01500525 6.64103891 89.77832031 8.42480469 C92.14651201 9.03793212 94.52084729 9.61974412 96.8984375 10.1953125 C106.73312439 12.58254696 116.40527262 15.23815829 126.02929688 18.36621094 C128.10345989 19.03327328 130.18325067 19.6793641 132.265625 20.3203125 C132.97428711 20.53880859 133.68294922 20.75730469 134.41308594 20.98242188 C136.36912041 21.58470109 138.32518415 22.1868852 140.28125 22.7890625 C174.46603287 33.92066197 207.54514846 51.0969887 238 70 C238.74830078 70.46277344 239.49660156 70.92554688 240.26757812 71.40234375 C244.22734907 73.86392927 248.12749992 76.40241671 252 79 C252.61278809 79.40992188 253.22557617 79.81984375 253.85693359 80.2421875 C270.29521761 91.27448335 285.8535983 103.25941901 301 116 C301.62680664 116.52625977 302.25361328 117.05251953 302.89941406 117.59472656 C315.05200735 127.82472893 326.61932543 138.5398029 337.875 149.75 C338.67188232 150.54220947 339.46876465 151.33441895 340.28979492 152.15063477 C345.06608154 156.93994808 349.59939069 161.86551662 354 167 C355.05703203 168.20319672 356.11559967 169.4050463 357.17578125 170.60546875 C363.59852669 177.92208583 369.78809186 185.32664537 375.60888672 193.13623047 C376.61152959 194.47953965 377.61895877 195.81928105 378.62939453 197.15673828 C386.66067677 207.78815655 394.20036034 218.54069503 401 230 C401.42845215 230.71559082 401.8569043 231.43118164 402.29833984 232.16845703 C443 300.34113918 443 300.34113918 443 325 C438.65312555 323.36678128 434.56527626 321.29870918 430.4375 319.1875 C419.10500229 313.49030917 408.53120447 309.34114295 396 307 C395.24122559 306.83008545 394.48245117 306.6601709 393.70068359 306.48510742 C387.70061874 305.16955068 382.01268471 304.64761488 375.875 304.6875 C374.96411621 304.69241455 374.05323242 304.6973291 373.11474609 304.70239258 C342.8820545 305.21889642 315.54925071 319.21358986 294.53173828 340.38183594 C281.83096116 353.79923326 269.86799424 371.39601728 264 389 C263.34 389 262.68 389 262 389 C261.79246094 388.1234375 261.58492187 387.246875 261.37109375 386.34375 C249.70251753 338.30241528 231.53659217 292.41436202 210 248 C209.49017578 246.93797363 208.98035156 245.87594727 208.45507812 244.78173828 C201.54767146 230.42573997 193.92230687 216.61845647 185.75244141 202.94482422 C184.00939762 200.01579189 182.2885938 197.0747962 180.57421875 194.12890625 C174.7516378 184.14248807 168.79253755 174.31876983 162.23583984 164.79638672 C160.94713714 162.92315983 159.67021294 161.04227085 158.39453125 159.16015625 C148.11854423 144.04687254 137.46152944 129.2380703 126 115 C125.48969238 114.36352539 124.97938477 113.72705078 124.45361328 113.07128906 C109.39862959 94.31320965 93.60381312 76.54440456 76.625 59.5 C75.37686523 58.24485596 75.37686523 58.24485596 74.10351562 56.96435547 C69.22978431 52.10330601 64.23498159 47.46801908 59 43 C58.03578125 42.154375 57.0715625 41.30875 56.078125 40.4375 C39.19212921 25.88382407 21.17689961 13.38382575 1.90234375 2.203125 C1.27457031 1.80609375 0.64679687 1.4090625 0 1 C0 0.67 0 0.34 0 0 Z " fill="#044EA9" transform="translate(533,234)"/>
<path d="M0 0 C2.45181841 0.54939831 4.9112041 1.05705575 7.37353516 1.55700684 C22.32728017 4.66492433 36.71135718 9.33243763 51.17138672 14.18225098 C53.62969192 15.00259987 56.09257727 15.8093635 58.56005859 16.60168457 C68.33990453 19.76647586 77.79675926 23.50466853 87.26806641 27.48669434 C88.05031586 27.81433777 88.83256531 28.1419812 89.63851929 28.47955322 C137.9288544 48.74230414 182.91695287 75.47997959 222.89306641 109.42419434 C223.42996094 109.87762207 223.96685547 110.3310498 224.52001953 110.79821777 C240.59067376 124.40399314 255.78829274 138.78271381 269.89306641 154.42419434 C270.45477539 155.04648926 271.01648437 155.66878418 271.59521484 156.30993652 C280.2343559 165.94219878 288.18989643 176.03275461 295.89306641 186.42419434 C296.3374707 187.02054688 296.781875 187.61689941 297.23974609 188.23132324 C303.6479373 196.86834344 309.44129654 205.85582999 315.13134766 214.97888184 C315.59605469 215.71622559 316.06076172 216.45356934 316.53955078 217.21325684 C317.44756835 218.69648323 318.3187032 220.20287871 319.15283203 221.72888184 C321.52722647 226.12812974 321.52722647 226.12812974 325.76025391 228.50231934 C326.75283203 228.55903809 327.74541016 228.61575684 328.76806641 228.67419434 C335.50662386 229.39440871 339.42664728 230.82445526 344.20556641 235.86169434 C347.56013565 240.95566985 348.59212148 245.3243751 347.89306641 251.42419434 C346.70955034 257.15886765 344.30627324 260.52024902 339.80712891 264.19763184 C334.15714318 267.81823493 328.45208418 268.46224617 321.89306641 267.42419434 C316.86692821 265.07810657 313.03492079 261.31270723 310.58056641 256.33825684 C308.49753402 250.53890529 308.22509695 245.07053296 310.65869141 239.35388184 C313.02300437 235.65777234 316.43109555 233.05562111 319.89306641 230.42419434 C300.25868777 223.19047589 275.6511222 226.36764791 256.82568359 234.52380371 C231.02909953 246.54222236 211.75096917 270.00535552 201.78808594 296.34558105 C199.04366687 304.23850472 196.45515621 312.20620416 194.89306641 320.42419434 C192.75474738 318.28587531 192.37004815 317.25282428 191.52587891 314.42419434 C191.1565625 313.21569824 191.1565625 313.21569824 190.77978516 311.98278809 C190.52841797 311.13845215 190.27705078 310.29411621 190.01806641 309.42419434 C187.9730805 302.59675463 185.64043449 296.00153184 182.89306641 289.42419434 C182.35141846 288.11926025 182.35141846 288.11926025 181.79882812 286.78796387 C176.43588587 273.98304309 170.62162453 261.55260768 163.95800781 249.37341309 C163.043092 247.69879414 162.14421558 246.01542983 161.24853516 244.33044434 C148.87102826 221.14393004 133.76296946 199.55305593 116.89306641 179.42419434 C115.45552902 177.63255767 114.01803009 175.84089014 112.58056641 174.04919434 C107.7949085 168.20373675 102.69832041 162.68703084 97.53173828 157.18054199 C95.83290032 155.35970763 94.15081131 153.52448007 92.47119141 151.68591309 C85.41793409 143.9941338 78.147767 136.70397981 70.36865234 129.74694824 C68.98538738 128.50695328 67.61453536 127.25315041 66.24462891 125.99841309 C60.30708067 120.57595184 54.15665381 115.46423491 47.89306641 110.42419434 C46.77171339 109.51044992 45.6506313 108.59637295 44.52978516 107.68200684 C-0.32956711 71.23646609 -50.97291256 43.43879116 -105.10693359 23.42419434 C-105.85628174 23.14350098 -106.60562988 22.86280762 -107.37768555 22.5736084 C-150.47854756 6.55723709 -195.31365722 -0.70800677 -241.10693359 -2.57580566 C-224.97998528 -11.60381022 -199.41406409 -10.90926632 -181.35693359 -12.76330566 C-180.67026611 -12.8349292 -179.98359863 -12.90655273 -179.27612305 -12.98034668 C-119.16600204 -18.75625206 -58.72608332 -13.35215957 0 0 Z " fill="#E30F1A" transform="translate(790.10693359375,230.5758056640625)"/>
<path d="M0 0 C0.30292969 0.99257813 0.60585938 1.98515625 0.91796875 3.0078125 C2.97793987 9.70521055 5.08678964 16.35671366 7.5 22.9375 C9.22662222 27.69145473 10.75415216 32.45503944 12.1484375 37.31640625 C15.28466406 48.12090155 18.67192618 58.84629178 22.04833984 69.57763672 C23.13168414 73.02124678 24.2124999 76.46564303 25.29296875 79.91015625 C25.98943648 82.12765029 26.68604599 84.34509982 27.3828125 86.5625 C27.70162384 87.57828125 28.02043518 88.5940625 28.34890747 89.640625 C29.9763196 94.8098678 31.63598763 99.96522171 33.36715698 105.10070801 C34.63551263 108.90730405 35.7739927 112.75417591 36.9375 116.59375 C39.53688033 124.92705752 42.44176231 133.14968381 45.39453125 141.36328125 C46.8873747 145.57875548 48.2408574 149.77890972 49.375 154.10546875 C51.5760917 162.3989721 54.46596814 170.48395732 57.23876953 178.59985352 C59.92062274 186.46430329 62.41821708 194.25823319 64.33959961 202.35083008 C65.32866297 206.31841844 66.63358777 210.14896768 68 214 C68.27312012 214.77923828 68.54624023 215.55847656 68.82763672 216.36132812 C69.97970535 219.63943329 71.13964879 222.91467796 72.30664062 226.1875 C74.31409513 231.8745426 76.13505183 237.60265373 77.89086914 243.37207031 C79.12561044 247.41086752 80.38766977 251.44048317 81.65625 255.46875 C81.88768204 256.2041803 82.11911407 256.9396106 82.3575592 257.69732666 C83.07137077 259.96499021 83.78561425 262.23251728 84.5 264.5 C87.69993353 274.6566891 90.87986856 284.81843975 94 295 C94.40441464 296.31240128 94.80904831 297.62473507 95.21386719 298.93701172 C96.30231473 302.46667387 97.38482186 305.99811962 98.46435547 309.53051758 C98.90659657 310.97442005 99.35062208 312.41777713 99.79638672 313.8605957 C107.30754311 338.18544003 110.00583107 362.88740374 100 387 C99.73799805 387.65484375 99.47599609 388.3096875 99.20605469 388.984375 C90.61846574 409.89704444 73.20344803 423.74635897 53.0625 432.8125 C33.34795785 440.5009117 10.27119204 440.71009479 -9.2265625 432.234375 C-31.72241126 421.79447229 -47.81055549 405.00020453 -57 382 C-60.39503219 372.44057401 -63.53751541 362.24043282 -62 352 C-59.50206178 346.88677076 -56.09332662 343.52791027 -51 341 C-44.75718929 339.87524779 -39.34464272 340.25383163 -33.9375 343.6875 C-28.96031177 347.56862873 -27.16805512 350.59939969 -26.25 356.8125 C-24.02143671 370.42331215 -17.17815264 383.74740236 -5.9375 391.875 C7.52968091 400.69692033 21.81705279 402.20667265 37.6015625 399.34765625 C46.97003349 396.20233386 55.23056215 389.98716974 61 382 C61.65742187 381.1028125 62.31484375 380.205625 62.9921875 379.28125 C71.3753131 365.58120038 71.68894188 348.97671621 68.05078125 333.734375 C66.40266177 327.87711766 64.47777948 322.1253438 62.4921875 316.375 C60.77392502 311.39313323 59.25689158 306.36189938 57.76171875 301.30859375 C57.21264401 299.06266454 57.21264401 299.06266454 56 298 C55.67533241 296.48586842 55.39052676 294.96311431 55.125 293.4375 C54.36278456 289.46268761 53.3378575 285.85594317 51.82389832 282.11000061 C49.28714924 275.6133954 47.32143943 268.89142987 45.29296875 262.22265625 C44.78326499 260.5566217 44.27349723 258.89060672 43.76367188 257.22460938 C42.97983084 254.65871485 42.19667478 252.09261589 41.41479492 249.52612305 C38.47096739 239.86958297 35.45256965 230.24927656 32.23146057 220.681427 C29.41549143 212.3026171 26.77146858 203.87105381 24.125 195.4375 C23.07504171 192.09869907 22.02399275 188.76024218 20.97265625 185.421875 C20.588498 184.20149788 20.588498 184.20149788 20.19657898 182.95646667 C18.01251042 176.02460253 15.79182412 169.10494557 13.5625 162.1875 C11.14174887 154.67290683 8.8367525 147.13711611 6.65283203 139.55053711 C5.28119619 134.82959886 3.68314955 130.23740857 1.95703125 125.63671875 C0.09011979 120.49318716 -1.43210765 115.24077512 -3 110 C-3.47001716 108.42967705 -3.94007162 106.85936526 -4.41015625 105.2890625 C-4.65926758 104.45681152 -4.90837891 103.62456055 -5.16503906 102.76708984 C-10.140623 85.65372627 -10.140623 85.65372627 -15.9375 68.8125 C-18.23173512 62.66987049 -19.93678875 56.36799048 -21.71191406 50.06103516 C-23.30336064 44.41451833 -24.93934873 38.78761217 -26.6875 33.1875 C-26.89133301 32.53386475 -27.09516602 31.88022949 -27.30517578 31.20678711 C-28.35910415 27.87628673 -29.50693728 24.61450375 -30.8125 21.375 C-32.01430572 17.95934163 -32.09516137 15.576064 -32 12 C-29.04756844 10.55015333 -26.08706895 9.11754077 -23.125 7.6875 C-22.30257812 7.28337891 -21.48015625 6.87925781 -20.6328125 6.46289062 C-7.18159299 0 -7.18159299 0 0 0 Z " fill="#0A3F7D" transform="translate(673,608)"/>
<path d="M0 0 C7.16439382 4.97925371 10.48065068 9.77684383 13 18 C13.53100318 19.56347119 14.06514203 21.12587917 14.6015625 22.6875 C15.17403627 24.39511029 15.74432976 26.10345298 16.3125 27.8125 C16.59182373 28.6372583 16.87114746 29.4620166 17.15893555 30.31176758 C19.50853927 37.65081952 19.50853927 37.65081952 18 42 C16.33904297 42.49306641 16.33904297 42.49306641 14.64453125 42.99609375 C13.03378781 43.47633998 11.42311751 43.95683158 9.8125 44.4375 C8.94568604 44.69539307 8.07887207 44.95328613 7.18579102 45.21899414 C1.546958 46.90649246 -4.07185257 48.64989108 -9.6796875 50.4375 C-11.65373859 51.06321791 -13.62796099 51.68839302 -15.60220337 52.31350708 C-16.90853798 52.72933371 -18.21386475 53.14833999 -19.51815796 53.57052612 C-21.36506203 54.16811873 -23.21567348 54.75421609 -25.06640625 55.33984375 C-26.6743103 55.85599243 -26.6743103 55.85599243 -28.31469727 56.38256836 C-31 57 -31 57 -34 56 C-35.98553859 51.85899496 -37.25982421 47.42294521 -38.6875 43.0625 C-39.10322266 41.86302734 -39.51894531 40.66355469 -39.94726562 39.42773438 C-42.81837155 30.78612986 -44.76257265 23.11238855 -41.4375 14.375 C-37.68559654 6.91082586 -32.53822587 1.55576692 -25 -2 C-17.24993768 -4.4833533 -7.04547524 -4.28792243 0 0 Z " fill="#0A3F7D" transform="translate(520,186)"/>
<path d="M0 0 C5.9348175 3.51359215 10.97071262 8.24346579 12.80859375 15.09375 C13.71784921 21.71832547 11.31275578 26.62267414 7.80859375 32.09375 C5.18359375 34.59375 5.18359375 34.59375 2.80859375 36.09375 C1.81859375 36.75375 0.82859375 37.41375 -0.19140625 38.09375 C-7.25739157 39.01203811 -13.73743652 39.00547126 -19.60546875 34.66015625 C-23.92550459 30.39332282 -26.30009706 24.96689169 -26.50390625 18.90625 C-26.41410516 13.87738883 -25.2423569 10.11661014 -22.19140625 6.09375 C-15.93399983 0.30218671 -8.47861345 -3.50630716 0 0 Z " fill="#0950A8" transform="translate(994.19140625,558.90625)"/>
<path d="M0 0 C4.49593754 2.99452666 7.42589085 7.33626631 9.1171875 12.41015625 C9.90289838 18.94057291 8.88924403 23.98628411 5.1171875 29.41015625 C0.60209645 33.9252473 -4.49582706 36.14493565 -10.8203125 36.84765625 C-16.09519156 36.61253567 -20.55764199 34.55873153 -24.42578125 30.984375 C-28.69041796 26.14445006 -30.3192406 21.922211 -30.13671875 15.4609375 C-29.45772891 9.97678878 -26.73474374 5.26208749 -22.8828125 1.41015625 C-15.29977636 -3.75779265 -8.16044635 -3.93903898 0 0 Z " fill="#0B9948" transform="translate(804.8828125,631.58984375)"/>
<path d="M0 0 C4.94333264 3.75132335 8.44742555 7.7139993 9.66015625 13.91796875 C10.05350307 20.42332008 8.213575 25.40967575 4.1875 30.5 C-0.87527042 35.14179607 -5.64565002 36.897325 -12.40625 36.765625 C-17.48195259 36.20532017 -21.00201539 34.25644029 -24.64453125 30.72265625 C-29.07808564 25.14696842 -29.70894818 19.82777546 -29.40625 12.8203125 C-28.35049819 6.91643724 -25.32092868 3.61209695 -20.859375 -0.14453125 C-14.66504894 -4.24649908 -6.16010585 -3.80113555 0 0 Z " fill="#FDB909" transform="translate(356.8125,747.5)"/>
<path d="M0 0 C5.23941464 2.18567297 9.903396 5.68446176 12.41015625 10.8828125 C14.03918263 16.73004626 14.22629846 23.46252774 11.375 28.9375 C8.15018241 33.09581742 5.10953959 36.29682014 0 38 C-5.8636172 38.47754426 -11.17989266 38.86215611 -16.5625 36.3125 C-22.12222199 31.03789196 -24.6984335 26.79973794 -25.3125 19.0625 C-25.1433753 13.52366619 -23.23949114 9.43520027 -19.625 5.25 C-13.3217682 -0.15277011 -8.19813056 -1.26925372 0 0 Z " fill="#099746" transform="translate(586,698)"/>
<path d="M0 0 C0.33 1.32 0.66 2.64 1 4 C-7.68679101 4.71961582 -16.28299826 5.14368684 -25 5 C-21.37737034 2.88526695 -17.71704331 2.18360736 -13.625 1.375 C-11.69527344 0.98441406 -11.69527344 0.98441406 -9.7265625 0.5859375 C-6.39936541 0.0627933 -3.35797518 -0.11435829 0 0 Z " fill="#ED2833" transform="translate(574,223)"/>
<path d="M0 0 C-1.3094668 1.33631236 -2.62265485 2.66897925 -3.9375 4 C-4.66839844 4.7425 -5.39929688 5.485 -6.15234375 6.25 C-8 8 -8 8 -9 8 C-9 6.35 -9 4.7 -9 3 C-9.66 2.67 -10.32 2.34 -11 2 C-9.73392393 1.46770674 -8.46189588 0.94955456 -7.1875 0.4375 C-6.47980469 0.14746094 -5.77210938 -0.14257812 -5.04296875 -0.44140625 C-3 -1 -3 -1 0 0 Z " fill="#E52730" transform="translate(493,245)"/>
<path d="M0 0 C2.98479194 4.47718792 4 8.63824093 4 14 C1.11562221 12.70700306 -0.87219421 11.34058637 -3 9 C-1.68 8.34 -0.36 7.68 1 7 C0.67 4.69 0.34 2.38 0 0 Z " fill="#FDCA44" transform="translate(565,682)"/>
<path d="M0 0 C3.68069887 1.53643852 5.98775204 3.78150945 8.75 6.625 C9.54921875 7.44226563 10.3484375 8.25953125 11.171875 9.1015625 C12.07679688 10.04128906 12.07679688 10.04128906 13 11 C12.34 11.66 11.68 12.32 11 13 C9.16052663 11.21427748 7.32842259 9.42197551 5.5 7.625 C4.71302734 6.86316406 4.71302734 6.86316406 3.91015625 6.0859375 C2.56846819 4.76167396 1.28004185 3.38394135 0 2 C0 1.34 0 0.68 0 0 Z " fill="#1D5FB2" transform="translate(867,382)"/>
<path d="M0 0 C3.06382739 0.32432407 3.98970965 0.98901487 6.140625 3.28515625 C7.18476562 4.65994141 7.18476562 4.65994141 8.25 6.0625 C8.95640625 6.98160156 9.6628125 7.90070313 10.390625 8.84765625 C10.92171875 9.55792969 11.4528125 10.26820313 12 11 C11.34 11.66 10.68 12.32 10 13 C8.33036458 11.02327092 6.66419927 9.0437967 5 7.0625 C4.52304687 6.49853516 4.04609375 5.93457031 3.5546875 5.35351562 C0 1.11328125 0 1.11328125 0 0 Z " fill="#199B4F" transform="translate(639,344)"/>
<path d="M0 0 C0.66 0.33 1.32 0.66 2 1 C0.12050295 4.57104439 -1.17053157 6.54744301 -5 8 C-5 8.66 -5 9.32 -5 10 C-5.66 10 -6.32 10 -7 10 C-5.6062718 5.56541027 -3.39417765 3.12621626 0 0 Z " fill="#E72029" transform="translate(135,740)"/>
<path d="M0 0 C0.33 0 0.66 0 1 0 C1 4.29 1 8.58 1 13 C0.34 13 -0.32 13 -1 13 C-1 12.34 -1 11.68 -1 11 C-1.99 10.67 -2.98 10.34 -4 10 C-4.33 8.35 -4.66 6.7 -5 5 C-3.68 5.99 -2.36 6.98 -1 8 C-0.67 5.36 -0.34 2.72 0 0 Z " fill="#EF5255" transform="translate(336,729)"/>
<path d="M0 0 C0.39832031 0.48082031 0.79664063 0.96164062 1.20703125 1.45703125 C3.43450247 3.37391825 4.78834669 3.47741643 7.6875 3.6875 C8.49574219 3.75324219 9.30398438 3.81898438 10.13671875 3.88671875 C10.75160156 3.92410156 11.36648438 3.96148437 12 4 C12 4.33 12 4.66 12 5 C8.7 5 5.4 5 2 5 C2 5.66 2 6.32 2 7 C-0.475 6.01 -0.475 6.01 -3 5 C-2.01 3.35 -1.02 1.7 0 0 Z " fill="#EF4148" transform="translate(1110,455)"/>
<path d="M0 0 C0.66 0.66 1.32 1.32 2 2 C1.21625 2.70125 0.4325 3.4025 -0.375 4.125 C-3.08360818 7.09157086 -4.01722715 9.1582516 -5 13 C-5.66 13 -6.32 13 -7 13 C-6.70876501 7.02968261 -3.97185616 4.105466 0 0 Z " fill="#E11D26" transform="translate(1107,463)"/>
<path d="M0 0 C1.32 0 2.64 0 4 0 C2.375 6.75 2.375 6.75 -1 9 C-0.67 6.03 -0.34 3.06 0 0 Z " fill="#F9C11F" transform="translate(349,731)"/>
<path d="M0 0 C2.97 0.495 2.97 0.495 6 1 C6 1.66 6 2.32 6 3 C9.96 3 13.92 3 18 3 C18 3.33 18 3.66 18 4 C15.93816367 4.08150744 13.87538651 4.1394194 11.8125 4.1875 C10.08966797 4.23970703 10.08966797 4.23970703 8.33203125 4.29296875 C4.72084678 3.97545546 2.87886312 3.15237035 0 1 C0 0.67 0 0.34 0 0 Z " fill="#E6333B" transform="translate(134,772)"/>
<path d="M0 0 C0 0.66 0 1.32 0 2 C0.99 2.33 1.98 2.66 3 3 C1.22844346 2.88570603 -0.54226229 2.75816963 -2.3125 2.625 C-3.29863281 2.55539062 -4.28476562 2.48578125 -5.30078125 2.4140625 C-8 2 -8 2 -11 0 C-7.01803543 -1.05404945 -4.01804691 -0.84098656 0 0 Z " fill="#3C72B5" transform="translate(930,538)"/>
<path d="M0 0 C0.66 1.32 1.32 2.64 2 4 C0.71034824 5.37562854 -0.62689293 6.70766393 -2 8 C-2.66 8 -3.32 8 -4 8 C-4.33 8.66 -4.66 9.32 -5 10 C-5 6.60406522 -4.47834052 5.93380119 -2.5 3.3125 C-2.0359375 2.68988281 -1.571875 2.06726563 -1.09375 1.42578125 C-0.7328125 0.95527344 -0.371875 0.48476563 0 0 Z " fill="#194A87" transform="translate(735,988)"/>
<path d="M0 0 C2 4 2 4 1.875 6.0625 C1 8 1 8 -3 11 C-2.01 7.37 -1.02 3.74 0 0 Z " fill="#D4DFEB" transform="translate(775,986)"/>
<path d="M0 0 C0.66 0.99 1.32 1.98 2 3 C0.02 4.98 -1.96 6.96 -4 9 C-4.99 8.67 -5.98 8.34 -7 8 C-4.69 5.36 -2.38 2.72 0 0 Z " fill="#E91F29" transform="translate(295,380)"/>
<path d="M0 0 C1.27351308 2.54702616 0.80191925 3.4282945 0.0625 6.125 C-0.13214844 6.84945312 -0.32679688 7.57390625 -0.52734375 8.3203125 C-0.68332031 8.87460937 -0.83929687 9.42890625 -1 10 C-3.5654594 7.4345406 -3.54046087 5.52313332 -4 2 C-2.68 1.34 -1.36 0.68 0 0 Z " fill="#E92D35" transform="translate(986,541)"/>
<path d="M0 0 C0.99 0.66 1.98 1.32 3 2 C0.1875 4.0625 0.1875 4.0625 -3 6 C-3.99 5.67 -4.98 5.34 -6 5 C-4.02 3.35 -2.04 1.7 0 0 Z " fill="#1C5BAD" transform="translate(977,561)"/>
<path d="M0 0 C1.32 0 2.64 0 4 0 C3.39816251 2.02045442 2.72693904 4.02111039 2 6 C1.01 6.495 1.01 6.495 0 7 C-1.125 2.25 -1.125 2.25 0 0 Z " fill="#1AA454" transform="translate(580,685)"/>
<path d="M0 0 C2.16295027 2.16295027 2.5534013 3.05244857 3 6 C2.67 6.99 2.34 7.98 2 9 C1.34 9 0.68 9 0 9 C-1.125 2.25 -1.125 2.25 0 0 Z " fill="#2063BA" transform="translate(795,614)"/>
<path d="M0 0 C2.31 1.98 4.62 3.96 7 6 C6.34 6.66 5.68 7.32 5 8 C3.02 5.69 1.04 3.38 -1 1 C-0.67 0.67 -0.34 0.34 0 0 Z " fill="#0E56AD" transform="translate(861,375)"/>
<path d="M0 0 C0.33 0 0.66 0 1 0 C1.25532751 3.06393013 1.21861333 4.63233212 -0.375 7.3125 C-1.179375 8.1478125 -1.179375 8.1478125 -2 9 C-2.66 9 -3.32 9 -4 9 C-2.80100302 5.9168649 -1.52299523 2.93720508 0 0 Z " fill="#E0F4E9" transform="translate(591,671)"/>
<path d="M0 0 C0.99 0 1.98 0 3 0 C4.75 2.3125 4.75 2.3125 6 5 C5.67 5.99 5.34 6.98 5 8 C2.74754119 5.31158141 1.11786042 3.35358125 0 0 Z " fill="#E91921" transform="translate(943,459)"/>
<path d="M0 0 C0.66 0.66 1.32 1.32 2 2 C0.35 3.65 -1.3 5.3 -3 7 C-3.99 6.67 -4.98 6.34 -6 6 C-4.02 4.02 -2.04 2.04 0 0 Z " fill="#E92029" transform="translate(302,373)"/>
<path d="M0 0 C0.53625 0.2475 1.0725 0.495 1.625 0.75 C0.965 1.41 0.305 2.07 -0.375 2.75 C-1.695 2.75 -3.015 2.75 -4.375 2.75 C-4.375 3.41 -4.375 4.07 -4.375 4.75 C-5.695 4.42 -7.015 4.09 -8.375 3.75 C-2.95961538 -0.31153846 -2.95961538 -0.31153846 0 0 Z " fill="#EA242D" transform="translate(414.375,282.25)"/>
<path d="M0 0 C-1.65 1.32 -3.3 2.64 -5 4 C-6.32 3.01 -7.64 2.02 -9 1 C-3.375 -1.125 -3.375 -1.125 0 0 Z " fill="#F1484B" transform="translate(493,245)"/>
<path d="M0 0 C0.33 0 0.66 0 1 0 C1.33 2.31 1.66 4.62 2 7 C1.34 7 0.68 7 0 7 C0 8.98 0 10.96 0 13 C-0.33 13 -0.66 13 -1 13 C-1.0272415 11.58344207 -1.04650467 10.16672955 -1.0625 8.75 C-1.07410156 7.96109375 -1.08570313 7.1721875 -1.09765625 6.359375 C-1.00385306 4.09308998 -0.63241063 2.1711105 0 0 Z " fill="#EF7175" transform="translate(151,683)"/>
<path d="M0 0 C0.66 0 1.32 0 2 0 C3.06775224 1.96466413 4.06553465 3.96855359 5 6 C4.67 6.66 4.34 7.32 4 8 C1.10067643 5.60490662 0.49831724 3.68754757 0 0 Z " fill="#306AB6" transform="translate(952,500)"/>
<path d="M0 0 C0.99 0.66 1.98 1.32 3 2 C0.42786866 3.61949011 -0.67669159 4.04408751 -3.75 3.625 C-4.4925 3.41875 -5.235 3.2125 -6 3 C-3 1 -3 1 0 0 Z " fill="#205390" transform="translate(718,1004)"/>
<path d="M0 0 C2.31 1.65 4.62 3.3 7 5 C6.67 5.66 6.34 6.32 6 7 C3 5.1875 3 5.1875 0 3 C0 2.01 0 1.02 0 0 Z " fill="#FDBF1A" transform="translate(544,676)"/>
<path d="M0 0 C1.61949011 2.57213134 2.04408751 3.67669159 1.625 6.75 C1.41875 7.4925 1.2125 8.235 1 9 C0.34 8.67 -0.32 8.34 -1 8 C-0.67 5.36 -0.34 2.72 0 0 Z " fill="#FBD8DC" transform="translate(355,493)"/>
<path d="M0 0 C2.31 0.33 4.62 0.66 7 1 C5.68 2.32 4.36 3.64 3 5 C0 1.125 0 1.125 0 0 Z " fill="#FCE9E8" transform="translate(1104,459)"/>
<path d="M0 0 C0.66 0.66 1.32 1.32 2 2 C0.02 3.32 -1.96 4.64 -4 6 C-4 5.01 -4 4.02 -4 3 C-2 1.3125 -2 1.3125 0 0 Z " fill="#EB1F2A" transform="translate(376,307)"/>
<path d="M0 0 C-1 2 -1 2 -4 4 C-6.6875 4.125 -6.6875 4.125 -9 4 C-3.7826087 0 -3.7826087 0 0 0 Z " fill="#E73138" transform="translate(463,256)"/>
<path d="M0 0 C-0.99 0.33 -1.98 0.66 -3 1 C-3.33 1.99 -3.66 2.98 -4 4 C-5.32 3.34 -6.64 2.68 -8 2 C-6.14210462 -1.71579076 -3.44525918 -1.06921837 0 0 Z " fill="#D3E0E8" transform="translate(525,233)"/>
</svg>
